<?xml version="1.0" encoding="UTF-8" standalone="no"?>
<!-- Generator: Adobe Illustrator 16.0.4, SVG Export Plug-In . SVG Version: 6.00 Build 0)  -->

<svg
   xmlns:dc="http://purl.org/dc/elements/1.1/"
   xmlns:cc="http://creativecommons.org/ns#"
   xmlns:rdf="http://www.w3.org/1999/02/22-rdf-syntax-ns#"
   xmlns:svg="http://www.w3.org/2000/svg"
   xmlns="http://www.w3.org/2000/svg"
   xmlns:sodipodi="http://sodipodi.sourceforge.net/DTD/sodipodi-0.dtd"
   xmlns:inkscape="http://www.inkscape.org/namespaces/inkscape"
   version="1.1"
   id="Capa_1"
   x="0px"
   y="0px"
   width="10.4285"
   height="15.642877"
   viewBox="0 0 83.428002 125.14301"
   enable-background="new 0 0 216 146"
   xml:space="preserve"
   sodipodi:docname="generic-pt.svg"
   inkscape:version="0.92.0 r15299"><metadata
     id="metadata9"><rdf:RDF><cc:Work
         rdf:about=""><dc:format>image/svg+xml</dc:format><dc:type
           rdf:resource="http://purl.org/dc/dcmitype/StillImage" /><dc:title></dc:title></cc:Work></rdf:RDF></metadata><defs
     id="defs7" /><sodipodi:namedview
     pagecolor="#ffffff"
     bordercolor="#666666"
     borderopacity="1"
     objecttolerance="10"
     gridtolerance="10"
     guidetolerance="10"
     inkscape:pageopacity="0"
     inkscape:pageshadow="2"
     inkscape:window-width="1920"
     inkscape:window-height="1017"
     id="namedview5"
     showgrid="false"
     inkscape:zoom="19.211327"
     inkscape:cx="9.8015143"
     inkscape:cy="14.177001"
     inkscape:window-x="1912"
     inkscape:window-y="-8"
     inkscape:window-maximized="1"
     inkscape:current-layer="Capa_1"
     scale-x="8"
     fit-margin-top="0"
     fit-margin-left="0"
     fit-margin-right="0"
     fit-margin-bottom="0"><inkscape:grid
       type="xygrid"
       id="grid4486"
       originx="-57.792925"
       originy="-58.478473" /></sodipodi:namedview><path
     d="M 71.207,12.221004 C 63.06,4.073 53.229,0 41.714,0 30.199,0 20.368,4.074 12.221,12.221004 4.074,20.368003 0,30.199003 0,41.714004 c 0,5.921 0.896,10.782 2.688,14.584 l 29.738,63.061006 c 0.815,1.792 2.078,3.204 3.789,4.235 1.711,1.032 3.544,1.549 5.5,1.549 1.955,0 3.789,-0.517 5.5,-1.549 1.711,-1.031 3,-2.443 3.869,-4.235 L 80.739,56.298004 c 1.793,-3.802 2.689,-8.663 2.689,-14.584 0.001,-11.515001 -4.073,-21.345001 -12.221,-29.493 z m -14.747,44.24 c -4.073,4.073 -8.988,6.11 -14.746,6.11 -5.758,0 -10.673,-2.037 -14.747,-6.11 -4.074,-4.074 -6.111,-8.989 -6.111,-14.747 0,-5.757001 2.037,-10.673001 6.111,-14.746001 4.074,-4.074 8.99,-6.111 14.747,-6.111 5.758,0 10.673,2.037 14.746,6.111 4.074,4.073 6.111,8.989 6.111,14.746001 0,5.757 -2.037,10.672 -6.111,14.747 z"
     id="path2"
     inkscape:connector-curvature="0" /></svg>